<mxfile host="Electron" modified="2024-11-17T14:04:26.254Z" agent="Mozilla/5.0 (Windows NT 10.0; Win64; x64) AppleWebKit/537.36 (KHTML, like Gecko) draw.io/22.1.2 Chrome/114.0.5735.289 Electron/25.9.4 Safari/537.36" etag="JbKUagkbH3wZlLVrndNx" version="22.1.2" type="device" pages="2">
  <diagram id="C5RBs43oDa-KdzZeNtuy" name="Use Case">
    <mxGraphModel dx="6240" dy="3073" grid="1" gridSize="15" guides="1" tooltips="1" connect="1" arrows="1" fold="1" page="0" pageScale="1" pageWidth="827" pageHeight="1169" math="0" shadow="0">
      <root>
        <mxCell id="WIyWlLk6GJQsqaUBKTNV-0" />
        <mxCell id="WIyWlLk6GJQsqaUBKTNV-1" parent="WIyWlLk6GJQsqaUBKTNV-0" />
        <mxCell id="LMsqK15qHj1mQGjL64Y2-0" value="Three In A Row" style="shape=umlFrame;whiteSpace=wrap;html=1;pointerEvents=0;recursiveResize=0;container=1;collapsible=0;width=1240;height=60;fontSize=25;" vertex="1" parent="WIyWlLk6GJQsqaUBKTNV-1">
          <mxGeometry x="-870" y="-450" width="855" height="1000" as="geometry" />
        </mxCell>
        <mxCell id="LMsqK15qHj1mQGjL64Y2-19" value="&lt;font style=&quot;font-size: 25px;&quot;&gt;Move elements in&lt;br&gt;adjacent cells&lt;br&gt;&lt;/font&gt;" style="ellipse;whiteSpace=wrap;html=1;" vertex="1" parent="LMsqK15qHj1mQGjL64Y2-0">
          <mxGeometry x="345" y="120" width="255" height="125" as="geometry" />
        </mxCell>
        <mxCell id="LMsqK15qHj1mQGjL64Y2-25" value="&lt;font style=&quot;font-size: 25px;&quot;&gt;View current score&lt;br&gt;&lt;/font&gt;" style="ellipse;whiteSpace=wrap;html=1;" vertex="1" parent="LMsqK15qHj1mQGjL64Y2-0">
          <mxGeometry x="330" y="390" width="255" height="125" as="geometry" />
        </mxCell>
        <mxCell id="LMsqK15qHj1mQGjL64Y2-37" value="&lt;font style=&quot;font-size: 25px;&quot;&gt;Exit game&lt;br&gt;&lt;/font&gt;" style="ellipse;whiteSpace=wrap;html=1;" vertex="1" parent="LMsqK15qHj1mQGjL64Y2-0">
          <mxGeometry x="330" y="840" width="255" height="125" as="geometry" />
        </mxCell>
        <mxCell id="LMsqK15qHj1mQGjL64Y2-54" value="&lt;font style=&quot;font-size: 25px;&quot;&gt;View final score&lt;br&gt;&lt;/font&gt;" style="ellipse;whiteSpace=wrap;html=1;" vertex="1" parent="LMsqK15qHj1mQGjL64Y2-0">
          <mxGeometry x="330" y="615" width="255" height="125" as="geometry" />
        </mxCell>
        <mxCell id="LMsqK15qHj1mQGjL64Y2-1" value="&lt;font style=&quot;font-size: 25px;&quot;&gt;Player&lt;/font&gt;" style="shape=umlActor;verticalLabelPosition=bottom;verticalAlign=top;html=1;" vertex="1" parent="WIyWlLk6GJQsqaUBKTNV-1">
          <mxGeometry x="-1275" y="60" width="165" height="270" as="geometry" />
        </mxCell>
        <mxCell id="LMsqK15qHj1mQGjL64Y2-40" value="Menu" style="shape=umlFrame;whiteSpace=wrap;html=1;pointerEvents=0;recursiveResize=0;container=1;collapsible=0;width=1240;height=60;fontSize=25;" vertex="1" parent="WIyWlLk6GJQsqaUBKTNV-1">
          <mxGeometry x="-2205" y="-132.5" width="735" height="555" as="geometry" />
        </mxCell>
        <mxCell id="LMsqK15qHj1mQGjL64Y2-43" value="&lt;font style=&quot;font-size: 25px;&quot;&gt;Exit application&lt;br&gt;&lt;/font&gt;" style="ellipse;whiteSpace=wrap;html=1;" vertex="1" parent="LMsqK15qHj1mQGjL64Y2-40">
          <mxGeometry x="225" y="387.5" width="255" height="125" as="geometry" />
        </mxCell>
        <mxCell id="LMsqK15qHj1mQGjL64Y2-44" value="&lt;font style=&quot;font-size: 25px;&quot;&gt;Start a new game&lt;br&gt;&lt;/font&gt;" style="ellipse;whiteSpace=wrap;html=1;" vertex="1" parent="LMsqK15qHj1mQGjL64Y2-40">
          <mxGeometry x="225" y="117.5" width="255" height="125" as="geometry" />
        </mxCell>
        <mxCell id="LMsqK15qHj1mQGjL64Y2-49" value="&lt;font style=&quot;font-size: 25px;&quot;&gt;User&lt;/font&gt;" style="shape=umlActor;verticalLabelPosition=bottom;verticalAlign=top;html=1;" vertex="1" parent="WIyWlLk6GJQsqaUBKTNV-1">
          <mxGeometry x="-2520" y="10" width="165" height="270" as="geometry" />
        </mxCell>
        <mxCell id="LMsqK15qHj1mQGjL64Y2-50" value="" style="html=1;verticalAlign=bottom;endArrow=none;curved=0;rounded=0;entryX=0;entryY=0.5;entryDx=0;entryDy=0;endFill=0;exitX=1;exitY=0.3333333333333333;exitDx=0;exitDy=0;exitPerimeter=0;" edge="1" parent="WIyWlLk6GJQsqaUBKTNV-1" source="LMsqK15qHj1mQGjL64Y2-49" target="LMsqK15qHj1mQGjL64Y2-44">
          <mxGeometry x="0.0003" width="80" relative="1" as="geometry">
            <mxPoint x="-2415" y="365" as="sourcePoint" />
            <mxPoint x="-2040" y="623" as="targetPoint" />
            <mxPoint as="offset" />
          </mxGeometry>
        </mxCell>
        <mxCell id="LMsqK15qHj1mQGjL64Y2-51" value="" style="html=1;verticalAlign=bottom;endArrow=none;curved=0;rounded=0;entryX=0;entryY=0.5;entryDx=0;entryDy=0;endFill=0;exitX=1;exitY=1;exitDx=0;exitDy=0;exitPerimeter=0;" edge="1" parent="WIyWlLk6GJQsqaUBKTNV-1" source="LMsqK15qHj1mQGjL64Y2-49" target="LMsqK15qHj1mQGjL64Y2-43">
          <mxGeometry x="0.0003" width="80" relative="1" as="geometry">
            <mxPoint x="-2415" y="185" as="sourcePoint" />
            <mxPoint x="-2055" y="-23" as="targetPoint" />
            <mxPoint as="offset" />
          </mxGeometry>
        </mxCell>
        <mxCell id="LMsqK15qHj1mQGjL64Y2-53" value="" style="html=1;verticalAlign=bottom;endArrow=none;curved=0;rounded=0;entryX=0;entryY=0.5;entryDx=0;entryDy=0;endFill=0;exitX=1;exitY=0.3333333333333333;exitDx=0;exitDy=0;exitPerimeter=0;" edge="1" parent="WIyWlLk6GJQsqaUBKTNV-1" source="LMsqK15qHj1mQGjL64Y2-1" target="LMsqK15qHj1mQGjL64Y2-19">
          <mxGeometry x="0.0003" width="80" relative="1" as="geometry">
            <mxPoint x="-1380" y="-98" as="sourcePoint" />
            <mxPoint x="-1005" y="-150" as="targetPoint" />
            <mxPoint as="offset" />
          </mxGeometry>
        </mxCell>
        <mxCell id="LMsqK15qHj1mQGjL64Y2-55" value="" style="html=1;verticalAlign=bottom;endArrow=none;curved=0;rounded=0;entryX=0;entryY=0.5;entryDx=0;entryDy=0;endFill=0;exitX=1;exitY=0.3333333333333333;exitDx=0;exitDy=0;exitPerimeter=0;" edge="1" parent="WIyWlLk6GJQsqaUBKTNV-1" source="LMsqK15qHj1mQGjL64Y2-1" target="LMsqK15qHj1mQGjL64Y2-25">
          <mxGeometry x="0.0003" width="80" relative="1" as="geometry">
            <mxPoint x="-1095" y="165" as="sourcePoint" />
            <mxPoint x="-510" y="-252" as="targetPoint" />
            <mxPoint as="offset" />
          </mxGeometry>
        </mxCell>
        <mxCell id="LMsqK15qHj1mQGjL64Y2-56" value="" style="html=1;verticalAlign=bottom;endArrow=none;curved=0;rounded=0;entryX=0;entryY=0.5;entryDx=0;entryDy=0;endFill=0;exitX=1;exitY=1;exitDx=0;exitDy=0;exitPerimeter=0;" edge="1" parent="WIyWlLk6GJQsqaUBKTNV-1" source="LMsqK15qHj1mQGjL64Y2-1" target="LMsqK15qHj1mQGjL64Y2-54">
          <mxGeometry x="0.0003" width="80" relative="1" as="geometry">
            <mxPoint x="-1095" y="165" as="sourcePoint" />
            <mxPoint x="-525" y="18" as="targetPoint" />
            <mxPoint as="offset" />
          </mxGeometry>
        </mxCell>
        <mxCell id="LMsqK15qHj1mQGjL64Y2-57" value="" style="html=1;verticalAlign=bottom;endArrow=none;curved=0;rounded=0;entryX=0;entryY=0.5;entryDx=0;entryDy=0;endFill=0;exitX=1;exitY=1;exitDx=0;exitDy=0;exitPerimeter=0;" edge="1" parent="WIyWlLk6GJQsqaUBKTNV-1" source="LMsqK15qHj1mQGjL64Y2-1" target="LMsqK15qHj1mQGjL64Y2-37">
          <mxGeometry x="0.0003" width="80" relative="1" as="geometry">
            <mxPoint x="-1080" y="180" as="sourcePoint" />
            <mxPoint x="-510" y="33" as="targetPoint" />
            <mxPoint as="offset" />
          </mxGeometry>
        </mxCell>
      </root>
    </mxGraphModel>
  </diagram>
  <diagram id="zoNwdJhCRzmIHsfZZuCF" name="Page-2">
    <mxGraphModel dx="1376" dy="909" grid="1" gridSize="15" guides="1" tooltips="1" connect="1" arrows="1" fold="1" page="0" pageScale="1" pageWidth="850" pageHeight="1100" math="0" shadow="0">
      <root>
        <mxCell id="0" />
        <mxCell id="1" parent="0" />
      </root>
    </mxGraphModel>
  </diagram>
</mxfile>
